<?xml version="1.0" encoding="UTF-8"?>
<svg id="Calque_1" data-name="Calque 1" xmlns="http://www.w3.org/2000/svg" viewBox="0 0 1293.14 295.43">
  <g>
    <path d="M824.42,75.03l-8.05,178.21,37.7.07,5.01-114.34,44.88,103.62c.71,1.64,2.79,3.65,4.13,3.52,1.07-.1,3.45-1.75,3.9-2.75l48.01-105.04,3.3,115.02,36.5-.47-3.95-181.33-45.57.14-41.4,99.77c-8.57-18.71-14.95-36.67-22.32-55.3l-12.84-32.46-4.65-11.97-44.46.25-.19,3.05Z"/>
    <path d="M1113.96,253.55c-1.8-4.92-1.5-9-1.31-14.54-19.41,23.91-55.79,22.19-77.89,1.76-24.45-22.59-28.6-59.08-13.61-87.43,13.12-24.83,39.56-37.37,67.2-31.88,9.43,1.87,17.18,7.12,24.4,13.36-.57-3.64-.85-8.06,1.25-10.51l32.67-.36v112.06s-32.71,17.54-32.71,17.54ZM1113.28,186.84c.12-20.92-14.19-36.32-35.45-35.34-11.74.54-22.16,6.92-27.49,18.16-5.43,11.44-5.61,24.44-.66,36.35,6.56,15.8,24.3,23.11,39.51,18.69,17.46-5.08,23.99-19.97,24.09-37.86Z"/>
    <g>
      <path d="M1293.14,124.05l-54.88,69.21c-9,11.35-24.37,24.68-35.25,33.33-18.05,14.34-48.96,29.79-73.81,26.24,11.26-6.19,21.05-11.02,30.09-19.4,14.47-13.41,27.44-27.73,39.62-43.44l-47.3-64.21,45.07-.55,25.58,36.28,28.51-36.53,42.36-.93Z"/>
      <path d="M1221.93,222.74l23.91,30.73,42.09-.33c.66-6.38-1.87-9.73-5.06-13.91l-33.08-43.27-27.87,26.78Z"/>
    </g>
  </g>
  <g>
    <g>
      <path d="M174.62,120.23c21.02-2.8,38.3-15.84,48.34-34.02,1.71-3.09,1.67-6.99-.05-9.87-20.39-34.05-65.35-45.04-101.68-37.26-22.74,4.87-40.69,20.2-50.09,41.17-8.06,17.99-10.03,36.68-8.21,56.34,1.75,18.89,5.3,36.86,10.92,54.88l9.86,31.62c2.72,8.73,2.47,17.81-.2,26.43-12.05,30-53.45,44.1-83.52,45.91,28.09-28.48,33.83-57.25,36.86-94.52l.86-67.69c.48-37.39,6.55-69.06,29.97-99.37C57.11,24.76,48.68,14.85,44.48,0l121.18.18c16.79.02,32.31,4.11,47.02,11.4,30.49,15.1,49,46.94,46.92,80.93-1.61,26.41-15.37,49.59-37.96,62.34-28.95,16.34-51.74,8.8-85.14,11.28-21.71,1.62-38.87,18.33-41.33,39.43-1.09,9.29.78,17.64,1.86,27.26-7.59-5.48-10.78-14.48-10.74-23.76.12-25.65,17.22-46.93,40.57-56.92,8.45-3.61,15.51-7.85,22.01-14.92l-5.95-1.81c25.03-29.07,4.41-32,18.03-54.21-1.24,13.65-.19,31.88,13.68,39.02Z"/>
      <circle cx="194.05" cy="80.08" r="7.53"/>
    </g>
    <g>
      <path d="M646.12,253.12l-34.11.26-.5-79.28c-.09-13.54-11.28-22.01-23.73-22.39-12.97-.4-26.24,8.29-26.32,22.57l-.48,78.93-34.17-.05.08-193.6,34.23.04-.06,74.14c11.63-10.91,24.9-14.78,39.9-13.74,17.94,1.24,33.1,11.33,40.07,28.29,2.85,7.62,4.81,15.93,4.84,24.46l.27,80.37Z"/>
      <path d="M725.91,225.05c17.39,1.14,31.99-8.79,39.58-23.72,1.92-3.78,5.32-7.43,9.26-8.84,9.98-3.56,17.43-9.58,24.78-17.72,5.32,16.57,1.4,31.9-6.48,45.77-11.7,20.6-32.2,33.53-54.57,36.18-24.57,2.91-47.86-5.86-64.17-24.76-14.49-16.79-19.29-39.42-13.35-61.79,4.92-18.54,19.06-35.68,38.82-44.27,33.31-14.48,73.09-1.88,91.82,29.47,1.22,9.89-7.01,20.35-16.09,22.4-6.34,1.43-10.34-.61-13.47-5.37-13.6-20.66-38.72-26.67-56.49-11.87-9.8,8.17-14.95,21.12-12.48,34.63,2.99,16.34,15.4,28.77,32.83,29.91Z"/>
      <path d="M486.87,209.48l29.46,13.67c-14.3,24.9-41.32,36.9-69.1,32.68-21.89-3.32-41.16-16.97-50.82-37.32-9.1-19.17-9.21-41.92.02-61.06,11.83-24.51,36.96-37.97,63.7-37.37,23.11.51,44.34,11.9,55.91,32.45l-29.25,15.11c-10.94-17.33-33.15-20.6-49.13-9.76-9.75,8.23-15.03,18.88-14.7,31.23.31,11.55,5.05,23.18,15.42,30.31,15.64,10.77,36.57,7.3,48.49-9.94Z"/>
      <circle cx="724.05" cy="192.35" r="8.46"/>
      <g>
        <path d="M287.11,201.46l-6.42,3.45c-6.5,3.49-18.86.18-28.8.87-5.95-23.29.07-48.87,16.88-66.56,12.43-13.08,29.21-19.08,46.99-19.16,43.61-.18,70.33,38.99,64.3,81.2-29.88.06-73.18-10.44-92.95.19ZM345.8,177.97c-.77-17.11-16.42-28.16-33.41-26.86-14.87,1.14-25.6,12.25-28.03,26.96l61.43-.1Z"/>
        <path d="M373.55,228.53c-25.51,34.56-75.74,37.59-105.75,6.84-5.91-6.05-10.4-13.04-12.79-21.23,10.73-4.9,21.21-5.77,31.97-5.12,6.53,10.94,17.32,16.42,28.46,16.98,12.37.63,22.99-3.76,31.79-14.18l26.32,16.71Z"/>
        <polygon points="324.86 106.17 295.02 106.22 319.47 73.09 356.77 73.18 324.86 106.17"/>
      </g>
    </g>
  </g>
</svg>