<?xml version="1.0" encoding="UTF-8"?>
<svg id="Calque_1" data-name="Calque 1" xmlns="http://www.w3.org/2000/svg" viewBox="0 0 459.85 523.01">
  <path d="M309.13,212.85c37.2-4.95,67.81-28.05,85.58-60.22,3.02-5.47,2.96-12.38-.09-17.47-36.1-60.27-115.68-79.74-180-65.96-40.26,8.62-72.04,35.75-88.67,72.88-14.26,31.84-17.75,64.94-14.53,99.74,3.1,33.44,9.39,65.25,19.34,97.15l17.45,55.98c4.82,15.46,4.37,31.53-.35,46.79-21.33,53.11-94.63,78.07-147.86,81.28,49.72-50.42,59.88-101.35,65.26-167.33l1.52-119.83c.84-66.2,11.6-122.25,53.05-175.92C101.11,43.83,86.18,26.3,78.74,0l214.52.32c29.72.04,57.21,7.28,83.25,20.18,53.98,26.72,86.74,83.1,83.06,143.27-2.86,46.75-27.2,87.79-67.2,110.37-51.25,28.92-91.6,15.57-150.72,19.98-38.44,2.86-68.81,32.46-73.17,69.81-1.92,16.45,1.39,31.23,3.29,48.27-13.44-9.71-19.08-25.64-19.01-42.07.21-45.4,30.49-83.09,71.82-100.77,14.95-6.4,27.46-13.9,38.96-26.4l-10.54-3.2c44.32-51.46,7.81-56.65,31.92-95.97-2.19,24.16-.34,56.45,24.21,69.07Z"/>
  <circle cx="343.52" cy="141.77" r="13.33"/>
</svg>