<?xml version="1.0" encoding="UTF-8"?>
<svg id="Calque_1" data-name="Calque 1" xmlns="http://www.w3.org/2000/svg" viewBox="0 0 508.33 404.98">
  <g id="U0yIoy.tif">
    <g>
      <path d="M259.19,0c6.09,2.16,12.68,3.28,18.12,7.81l77.53,64.6.35-61.09c.03-5.97,4.41-9.68,10.31-10.32h60.35c6.07.89,10.04,4.69,10.04,11v127.91s68.31,56.76,68.31,56.76c4.69,3.9,5.38,9.72,2.08,14.71l-19.41,23.17c-3.69,3.72-9.78,5.35-14.39,1.51L254.22,54.24,36.49,235.62c-5.08,4.23-11.45,2.88-15.42-1.59L0,208.44v-6.95c.73-.72,2.07-3,3.25-3.98L226.62,11.47c7.18-5.98,14.04-9.49,22.63-11.47h9.93Z"/>
      <path d="M294.57,283.86l-80.68-.23-.05,121.29-122.25.07c-10.32-1.74-17.73-8.5-19.04-19.02v-154.38S254.22,81.95,254.22,81.95l181.67,149.64v153.42c-.66,10.64-7.92,17.61-18.24,19.96l-123.08-.04v-121.07Z"/>
    </g>
  </g>
</svg>