<?xml version="1.0" encoding="UTF-8"?>
<svg id="Calque_1" data-name="Calque 1" xmlns="http://www.w3.org/2000/svg" viewBox="0 0 475.22 446.84">
  <g id="wrxpO7">
    <path d="M324.11,445.38c-9.89,2.17-19.27,1.96-28.75-.82l-130.79-38.41-127.09,28.04c-9.56,2.11-18.93-.44-26.29-6.67C4.17,421.58.01,412.59.01,402.52V69.74C0,48.93,13.82,31.6,33.49,27.27L149.97,1.61c10.44-2.28,20.51-2.24,30.81.79l129.93,38.21,127.48-28.07c19.39-4.27,37.24,11.48,37.02,31.67v333.36c0,20.83-14.46,37.78-33.91,42.05l-117.2,25.74ZM50.1,387.89l94.53-20.84V46.34s-98.03,21.58-98.03,21.58c-3.43,1.1-5.36,3.65-5.26,7.52v305.54c.15,4.79,3.9,7.98,8.76,6.91ZM289.26,398.45V78.56s-103.3-30.33-103.3-30.33v319.99s103.3,30.23,103.3,30.23ZM428.79,378.77c3.44-.76,4.83-3.78,5.1-6.87V66.35c.26-4.5-3.42-8.61-7.95-7.61l-95.33,20.99v320.72s98.19-21.67,98.19-21.67Z"/>
  </g>
</svg>