<?xml version="1.0" encoding="UTF-8"?>
<svg id="Calque_1" data-name="Calque 1" xmlns="http://www.w3.org/2000/svg" viewBox="0 0 467.63 366.48">
  <defs>
    <style>
      .cls-1 {
        fill: #1d1d1b;
      }
    </style>
  </defs>
  <path class="cls-1" d="M179.63,0c41.75,8.86,76.41,35.47,87.23,75.42,12.07,44.56-4.95,88.61-44.13,115.01,56.8,21.55,101.35,65.16,112.73,125.03,4.63,24.34-20.05,50.53-45.84,50.58l-239.58.44c-25.13.05-40.65-18.69-50.03-38.14v-19.31c1.52-1.97,3.98-6.12,5.11-9.43,17.6-51.87,56.71-89.86,109.46-109.13-39.65-26.48-56.27-70.39-44.37-114.92C80.92,35.44,115.77,8.81,157.53,0h22.11ZM247.61,103.38c0-43.6-35.4-78.94-79.07-78.94s-79.07,35.34-79.07,78.94,35.4,78.94,79.07,78.94,79.07-35.34,79.07-78.94ZM288.72,343.07c13.06,0,26.81-14.62,24.1-25.68-16.62-67.79-78.07-112.26-145.59-111.72-66.2.53-126.9,44.93-142.9,111.79-3.07,12.82,13.12,25.74,25.44,25.73l238.96-.12Z"/>
  <path class="cls-1" d="M315.05,0c1.1.8,5.64,2.93,7.75,3.3,39.25,6.88,68.03,37.83,75.93,72,9.61,41.54-6.55,79.52-41.48,104.66,67.71,24.87,111.58,85.62,110.35,156.84-.09,5.28-8.7,10.15-12.6,9.46-4.78-.84-10.01-6.37-10.09-12.34-1.01-76.43-61.66-138.28-138.22-138.69-7.99-.04-13.7-5.12-13.82-11.8-.12-7.02,6.06-12.05,13.86-12.15,42.11-.52,73.06-36.03,71.67-75.83-1.43-40.73-34.81-71.58-76.99-71.6-4.16,0-10.13-10.31-7.89-13.35l7.71-10.48h13.82Z"/>
</svg>