<?xml version="1.0" encoding="UTF-8"?>
<svg id="Calque_1" data-name="Calque 1" xmlns="http://www.w3.org/2000/svg" viewBox="0 0 455.73 421.46">
  <defs>
    <style>
      .cls-1 {
        fill: #1d1d1b;
      }
    </style>
  </defs>
  <g id="dZz3Pz.tif">
    <path class="cls-1" d="M394.37,0c31.41,3.29,56.1,24.97,61.35,57.75v235.16c-5.49,34.67-33.25,57.59-67.75,57.55l-185.97-.19-88.52,68.26c-4.63,3.57-10.19,3.71-14.83,1.31-4.14-2.15-7.53-6.67-7.58-12.2l-.52-57.24-24.68-.12c-34.06-.17-59.96-24.16-65.87-56.55V56.97C5.8,25.36,29.5,3.3,61.43,0h332.94ZM188.62,325.39c3.11-1.72,5.8-2.97,9.16-2.98l192.96-.09c20.6,0,37.12-16.61,37.12-37.09V65.46c0-20.46-16.54-37.1-37.16-37.1H65.1c-20.62,0-37.16,16.64-37.17,37.1v219.76c0,20.62,16.63,37,36.97,37.08l39.3.15c7.85.03,13.93,6.1,14.05,13.96l.62,42.75,69.75-53.77Z"/>
  </g>
</svg>