<?xml version="1.0" encoding="UTF-8"?>
<svg id="Calque_1" data-name="Calque 1" xmlns="http://www.w3.org/2000/svg" viewBox="0 0 401.05 437.4">
  <defs>
    <style>
      .cls-1 {
        fill: #1d1d1b;
      }
    </style>
  </defs>
  <path class="cls-1" d="M214.4,0c49.84,10.57,91.2,42.34,104.11,90.02,14.4,53.19-5.91,105.76-52.67,137.27,67.8,25.72,120.97,77.77,134.55,149.23,5.52,29.05-23.93,60.31-54.72,60.37l-285.95.52c-29.99.06-48.52-22.31-59.71-45.52v-23.05c1.81-2.35,4.75-7.3,6.1-11.25,21-61.91,67.69-107.25,130.65-130.25-47.32-31.6-67.16-84.01-52.95-137.17C96.58,42.3,138.18,10.52,188.01,0h26.39ZM295.53,123.39c0-52.03-42.25-94.22-94.37-94.22s-94.37,42.18-94.37,94.22,42.25,94.22,94.37,94.22,94.37-42.18,94.37-94.22ZM344.6,409.47c15.59,0,32-17.45,28.76-30.65-19.84-80.91-93.18-133.99-173.77-133.34-79.02.63-151.46,53.62-170.56,133.43-3.66,15.3,15.66,30.72,30.37,30.71l285.21-.14Z"/>
</svg>